<svg id="Capa_1" data-name="Capa 1" xmlns="http://www.w3.org/2000/svg" viewBox="0 0 387.69 293.19"><defs><style>.cls-1{fill:#bd398b;}</style></defs><title>logotipo</title><g id="_Grupo_" data-name="&lt;Grupo&gt;"><path id="_Trazado_" data-name="&lt;Trazado&gt;" class="cls-1" d="M139.66,94.93v57.4c0,68.22-6.82,98.32-48.56,98.32-33.71,0-48.56-14-48.56-98.32V23.1A15.16,15.16,0,0,0,27.29,8.25h-12A15.16,15.16,0,0,0,0,23.1V152.32c0,49.36,0,140.86,91.1,140.86s91.1-91.5,91.1-140.86V117.39A69.85,69.85,0,0,1,139.66,94.93Z"/><path id="_Trazado_2" data-name="&lt;Trazado&gt;" class="cls-1" d="M372.44,8.25h-12A15.16,15.16,0,0,0,345.15,23.1V152.32c0,68.22-6.82,98.32-48.56,98.32-33.71,0-48.56-14-48.56-98.32V89.48a70,70,0,0,1-42.54,27.17v35.66c0,49.36,0,140.86,91.1,140.86s91.1-91.5,91.1-140.86V23.1A15.16,15.16,0,0,0,372.44,8.25Z"/></g><circle id="_Trazado_3" data-name="&lt;Trazado&gt;" class="cls-1" cx="193.36" cy="48.04" r="48.04"/></svg>