<svg id="Capa_1" data-name="Capa 1" xmlns="http://www.w3.org/2000/svg" viewBox="0 0 1142.03 293.19"><defs><style>.cls-1{fill:#bd398b;}</style></defs><title>logotipo</title><path id="_Trazado_compuesto_" data-name="&lt;Trazado compuesto&gt;" class="cls-1" d="M215.51,23.1V273.52a15.24,15.24,0,0,1-15.25,15.25h-12A15.24,15.24,0,0,1,173,273.52V132.26c0-8-2.81-8.83-6.82-1.61L113.57,234.59c-4,7.22-10,7.22-13.64,0L49,132.66c-3.61-7.62-6.42-6.82-6.42,1.61V273.52a15.24,15.24,0,0,1-15.25,15.25h-12A15.24,15.24,0,0,1,0,273.52V23.1A15.16,15.16,0,0,1,15.25,8.25h4c8.43,0,18.46,6,22.07,13.24l59,118.79c3.61,7.22,9.63,7.22,13.65,0l60.2-118.79c3.61-7.22,13.64-13.24,22.07-13.24h4A15.16,15.16,0,0,1,215.51,23.1Z"/><path id="_Trazado_compuesto_2" data-name="&lt;Trazado compuesto&gt;" class="cls-1" d="M892.15,209.71c0,45.35-38.93,82.27-86.69,82.27-48.16,0-80.26-21.67-95.92-35.32-6.42-5.22-5.62-14.85.8-20.07L720,229c6.42-5.22,16.05-4.41,22.88.4,11.64,8.83,32.91,20.07,62.2,20.07,24.48,0,44.55-17.66,44.55-39.73,0-26.49-14.45-32.91-52.17-44.15-33.31-9.63-79.06-22.47-79.06-78.26C718.38,42,757.31,5,805.47,5c33.71,0,56.59,10.84,69,19.26,6.82,4.82,6.82,14.45.8,20.07l-8.83,8.43c-6,5.62-16.05,6-23.68,2.41-8-4-20.47-7.63-37.72-7.63-24.08,0-44.15,18.06-44.15,39.73,0,20.87,10.43,26.89,48.16,37.72C842,134.66,892.15,149.11,892.15,209.71Z"/><path id="_Trazado_compuesto_3" data-name="&lt;Trazado compuesto&gt;" class="cls-1" d="M1131.35,288.77H1116.5c-8.43,0-17.66-6.42-20.87-14l-10.43-28.09c-3.21-7.62-12-14-20.47-14H984.06c-8.43,0-17.66,6.42-20.47,14l-10.83,28.09c-3.21,7.63-12.44,14-20.87,14H917c-8.43,0-12.84-6.42-10-14l97.52-252.43c2.81-8,12-14,20.47-14,8,0,17.26,6,20.07,14L1141,274.73C1144.19,282.35,1139.78,288.77,1131.35,288.77Zm-73-112.77-28.09-74.24c-3.21-7.63-8-7.63-10.84,0L990.48,176c-2.81,7.63,1.61,14,9.63,14h48.56C1056.7,190,1061.12,183.63,1058.31,176Z"/><g id="_Grupo_" data-name="&lt;Grupo&gt;"><path id="_Trazado_" data-name="&lt;Trazado&gt;" class="cls-1" d="M419,94.93v57.4c0,68.22-6.82,98.32-48.56,98.32-33.71,0-48.56-14-48.56-98.32V23.1A15.16,15.16,0,0,0,306.61,8.25h-12A15.16,15.16,0,0,0,279.32,23.1V152.32c0,49.36,0,140.86,91.1,140.86s91.1-91.5,91.1-140.86V117.39A69.85,69.85,0,0,1,419,94.93Z"/><path id="_Trazado_2" data-name="&lt;Trazado&gt;" class="cls-1" d="M651.76,8.25h-12A15.16,15.16,0,0,0,624.47,23.1V152.32c0,68.22-6.82,98.32-48.56,98.32-33.71,0-48.56-14-48.56-98.32V89.48a70,70,0,0,1-42.54,27.17v35.66c0,49.36,0,140.86,91.1,140.86S667,201.69,667,152.32V23.1A15.16,15.16,0,0,0,651.76,8.25Z"/></g><circle id="_Trazado_3" data-name="&lt;Trazado&gt;" class="cls-1" cx="472.68" cy="48.04" r="48.04"/></svg>